<svg xmlns="http://www.w3.org/2000/svg" width="28.322" height="21.559" viewBox="0 0 28.322 21.559">
  <defs>
    <style>
      .cls-1, .cls-3 {
        fill: none;
        stroke: #fff;
        stroke-width: 2px;
      }

      .cls-2 {
        fill: #fff;
      }

      .cls-3 {
        stroke-linecap: round;
      }
    </style>
  </defs>
  <g id="icons8_discord_new_1" transform="translate(-1 -3.359)">
    <path id="Path_78" data-name="Path 78" class="cls-1" d="M19.109,20.991l1.42,2.69a.51.51,0,0,0,.462.236h.018c1.034-.033,5.574-.8,7.237-3.74a.56.56,0,0,0,.075-.284c0-5.664-2.41-12.216-3.647-13.361A14.193,14.193,0,0,0,20.9,4.461,1.317,1.317,0,0,0,19.109,5.69a.823.823,0,0,1-.824.824h-6.25a.823.823,0,0,1-.823-.823A1.316,1.316,0,0,0,9.427,4.462,14.391,14.391,0,0,0,5.618,6.555C4.41,7.675,2,14.227,2,19.892a.567.567,0,0,0,.075.284c1.665,2.939,6.2,3.707,7.237,3.74h.018a.511.511,0,0,0,.462-.236l1.42-2.691"/>
    <path id="Path_79" data-name="Path 79" class="cls-2" d="M9.514,15.252c-1.091,0-1.974-1.175-1.974-2.627S8.423,10,9.514,10c1.095-.145,1.95,1.175,1.974,2.627C11.488,14.077,10.605,15.252,9.514,15.252Z" transform="translate(1.751 1.774)"/>
    <ellipse id="Ellipse_35" data-name="Ellipse 35" class="cls-2" cx="1.974" cy="2.632" rx="1.974" ry="2.632" transform="translate(17.13 11.794)"/>
    <path id="Path_80" data-name="Path 80" class="cls-3" d="M7,16c4.939,1.756,7.973,1.754,13.161,0" transform="translate(1.58 3.675)"/>
  </g>
</svg>
