<svg xmlns="http://www.w3.org/2000/svg" width="26" height="26" viewBox="0 0 26 26">
  <defs>
    <style>
      .cls-1 {
        fill: #fff;
      }
    </style>
  </defs>
  <path id="icons8_Facebook_5" class="cls-1" d="M15,2A13,13,0,1,0,28,15,13.02,13.02,0,0,0,15,2Zm0,2.6a10.394,10.394,0,0,1,1.584,20.668V18.1h3.027l.475-3.075h-3.5V13.345c0-1.278.416-2.412,1.612-2.412h1.919V8.249a16.37,16.37,0,0,0-2.4-.145c-2.816,0-4.466,1.487-4.466,4.875v2.046H10.356V18.1h2.895v7.142A10.395,10.395,0,0,1,15,4.6Z" transform="translate(-2 -2)"/>
</svg>
