<svg xmlns="http://www.w3.org/2000/svg" width="25.756" height="25.756" viewBox="0 0 25.756 25.756">
  <defs>
    <style>
      .cls-1 {
        fill: #fff;
      }
    </style>
  </defs>
  <path id="icons8_Instagram_4" class="cls-1" d="M10.154,3A7.163,7.163,0,0,0,3,10.154V21.6a7.163,7.163,0,0,0,7.154,7.154H21.6A7.163,7.163,0,0,0,28.756,21.6V10.154A7.163,7.163,0,0,0,21.6,3Zm0,2.862H21.6a4.3,4.3,0,0,1,4.293,4.293V21.6A4.3,4.3,0,0,1,21.6,25.894H10.154A4.3,4.3,0,0,1,5.862,21.6V10.154A4.3,4.3,0,0,1,10.154,5.862ZM23.033,7.293a1.431,1.431,0,1,0,1.431,1.431A1.431,1.431,0,0,0,23.033,7.293ZM15.878,8.724a7.154,7.154,0,1,0,7.154,7.154A7.163,7.163,0,0,0,15.878,8.724Zm0,2.862a4.293,4.293,0,1,1-4.293,4.293A4.3,4.3,0,0,1,15.878,11.585Z" transform="translate(-3 -3)"/>
</svg>
