<svg xmlns="http://www.w3.org/2000/svg" width="26" height="26" viewBox="0 0 26 26">
  <defs>
    <style>
      .cls-1 {
        fill: #fff;
      }
    </style>
  </defs>
  <path id="icons8_linkedin_1" class="cls-1" d="M5.889,3A2.888,2.888,0,0,0,3,5.889V26.111A2.888,2.888,0,0,0,5.889,29H26.111A2.888,2.888,0,0,0,29,26.111V5.889A2.888,2.888,0,0,0,26.111,3Zm0,2.889H26.111V26.111H5.889ZM9.9,7.79a1.767,1.767,0,0,0-1.98,1.735,1.724,1.724,0,0,0,1.856,1.732,1.765,1.765,0,0,0,1.98-1.732A1.727,1.727,0,0,0,9.9,7.79ZM8.022,13.111V23.222h3.645V13.111Zm6.652,0V23.222h3.645V17.7c0-1.645,1.174-1.882,1.526-1.882s1.295.353,1.295,1.882v5.527h3.526V17.7c0-3.173-1.41-4.584-3.174-4.584s-2.7.587-3.174,1.411V13.111Z" transform="translate(-3 -3)"/>
</svg>
