<svg xmlns="http://www.w3.org/2000/svg" width="25.756" height="25.756" viewBox="0 0 25.756 25.756">
  <defs>
    <style>
      .cls-1 {
        fill: #fff;
      }
    </style>
  </defs>
  <path id="icons8_twitter_2" class="cls-1" d="M5.862,3A2.865,2.865,0,0,0,3,5.862V25.894a2.865,2.865,0,0,0,2.862,2.862H25.894a2.865,2.865,0,0,0,2.862-2.862V5.862A2.865,2.865,0,0,0,25.894,3Zm0,2.862H25.894l0,20.033H5.862ZM19.55,8.886a3.561,3.561,0,0,0-3.558,3.558c0,.368.123.613.123.858A9.953,9.953,0,0,1,8.88,9.623a2.814,2.814,0,0,0-.492,1.716,4.025,4.025,0,0,0,1.6,3.069,6.133,6.133,0,0,1-1.6-.492,3.544,3.544,0,0,0,2.82,3.435,2.691,2.691,0,0,1-.981.123,5.389,5.389,0,0,0-.615-.123A3.576,3.576,0,0,0,12.924,19.8a7.933,7.933,0,0,1-4.416,1.473H7.65a10.3,10.3,0,0,0,5.4,1.6A10,10,0,0,0,23.105,12.812V12.32a8.28,8.28,0,0,0,1.719-1.842,6.713,6.713,0,0,1-2.085.615,3.584,3.584,0,0,0,1.593-1.962,5.954,5.954,0,0,1-2.208.858A3.338,3.338,0,0,0,19.55,8.886Z" transform="translate(-3 -3)"/>
</svg>
