<svg xmlns="http://www.w3.org/2000/svg" width="55.86" height="55.86" viewBox="0 0 55.86 55.86">
  <defs>
    <style>
      .cls-1 {
        fill: #75bdfc;
      }

      .cls-2 {
        fill: #fff;
      }
    </style>
  </defs>
  <g id="icons8_prev" transform="translate(-3 -3)">
    <path id="Path_64" data-name="Path 64" class="cls-1" d="M12.31,3H49.55a9.309,9.309,0,0,1,9.31,9.31V49.55a9.309,9.309,0,0,1-9.31,9.31H12.31A9.309,9.309,0,0,1,3,49.55V12.31A9.309,9.309,0,0,1,12.31,3Z"/>
    <path id="Path_65" data-name="Path 65" class="cls-2" d="M23.768,38.032a4.64,4.64,0,0,1-3.293-1.362L9.613,25.808a4.653,4.653,0,0,1,0-6.582L20.475,8.364a4.654,4.654,0,0,1,6.582,6.582l-7.569,7.569,7.569,7.569a4.657,4.657,0,0,1-3.29,7.948Z" transform="translate(11.042 8.414)"/>
  </g>
</svg>
