<svg xmlns="http://www.w3.org/2000/svg" width="27.789" height="24" viewBox="0 0 27.789 24">
  <g id="icons8_sell_stock" transform="translate(0 -2)">
    <path id="Path_92" data-name="Path 92" d="M27.12,6.717a2.5,2.5,0,0,0-1.858-.835H5.4L5.261,4.807A3.2,3.2,0,0,0,2.131,2H1.263a1.294,1.294,0,0,0,0,2.588h.868a.639.639,0,0,1,.627.562L4.7,20.068A4.47,4.47,0,0,0,9.08,24H22.465a4.491,4.491,0,0,0,4.406-4.153l.909-11.163A2.639,2.639,0,0,0,27.12,6.717Z" fill="#84c2f9"/>
    <circle id="Ellipse_38" data-name="Ellipse 38" cx="2" cy="2" r="2" transform="translate(7.93 22)" fill="#fff"/>
    <circle id="Ellipse_39" data-name="Ellipse 39" cx="2" cy="2" r="2" transform="translate(20.789 22)" fill="#fff"/>
    <path id="Path_93" data-name="Path 93" d="M15,8H10a1,1,0,0,0,0,2h5a1,1,0,0,0,0-2Z" transform="translate(3.474 1.765)" fill="#fff"/>
  </g>
</svg>
