<svg xmlns="http://www.w3.org/2000/svg" width="24.818" height="26" viewBox="0 0 24.818 26">
  <defs>
    <style>
      .cls-1 {
        fill: #fff;
      }

      .cls-2 {
        fill: #84c2f9;
      }
    </style>
  </defs>
  <g id="icons8_connect" transform="translate(-1 -1)">
    <path id="Path_67" data-name="Path 67" class="cls-1" d="M19.3,16.563l-2.563-3.59L19.3,9.383a4.711,4.711,0,0,1-3.856-2.734l-2.829,3.96H8.445a4.587,4.587,0,0,1,0,4.727h4.167L15.44,19.3A4.707,4.707,0,0,1,19.3,16.563Z" transform="translate(1.354 1.027)"/>
    <path id="Path_68" data-name="Path 68" class="cls-2" d="M5.727,8a4.727,4.727,0,1,0,4.727,4.727A4.727,4.727,0,0,0,5.727,8Z" transform="translate(0 1.273)"/>
    <path id="Path_69" data-name="Path 69" class="cls-2" d="M23.455,19.727a4.727,4.727,0,1,0-4.727,4.727A4.727,4.727,0,0,0,23.455,19.727Z" transform="translate(2.364 2.545)"/>
    <path id="Path_70" data-name="Path 70" class="cls-2" d="M23.455,5.727a4.727,4.727,0,1,0-4.727,4.727A4.727,4.727,0,0,0,23.455,5.727Z" transform="translate(2.364 0)"/>
  </g>
</svg>
