<svg xmlns="http://www.w3.org/2000/svg" width="30.209" height="23.143" viewBox="0 0 30.209 23.143">
  <defs>
    <style>
      .cls-1, .cls-3 {
        fill: none;
        stroke: #fff;
        stroke-width: 2.7px;
      }

      .cls-2 {
        fill: #fff;
      }

      .cls-3 {
        stroke-linecap: round;
      }
    </style>
  </defs>
  <g id="icons8_discord_new_2" transform="translate(-0.65 -3.006)">
    <path id="Path_78" data-name="Path 78" class="cls-1" d="M19.881,21.74l1.484,2.811a.532.532,0,0,0,.483.246h.019c1.081-.034,5.825-.839,7.564-3.909a.585.585,0,0,0,.078-.3c0-5.92-2.518-12.767-3.811-13.964a14.834,14.834,0,0,0-3.95-2.162,1.376,1.376,0,0,0-1.866,1.285.861.861,0,0,1-.861.861H12.488a.86.86,0,0,1-.86-.86A1.375,1.375,0,0,0,9.762,4.466,15.04,15.04,0,0,0,5.781,6.653C4.518,7.823,2,14.672,2,20.592a.592.592,0,0,0,.078.3c1.74,3.071,6.484,3.875,7.564,3.909h.019a.534.534,0,0,0,.483-.246l1.484-2.813"/>
    <path id="Path_79" data-name="Path 79" class="cls-2" d="M9.6,15.49c-1.14,0-2.063-1.228-2.063-2.745S8.463,10,9.6,10c1.144-.151,2.038,1.228,2.063,2.745C11.666,14.262,10.743,15.49,9.6,15.49Z" transform="translate(2.08 2.107)"/>
    <ellipse id="Ellipse_35" data-name="Ellipse 35" class="cls-2" cx="2.063" cy="2.751" rx="2.063" ry="2.751" transform="translate(17.812 12.129)"/>
    <path id="Path_80" data-name="Path 80" class="cls-3" d="M7,16c5.162,1.835,8.332,1.833,13.754,0" transform="translate(1.877 4.365)"/>
  </g>
</svg>
