<svg xmlns="http://www.w3.org/2000/svg" width="23.507" height="23.507" viewBox="0 0 23.507 23.507">
  <defs>
    <style>
      .cls-1 {
        fill: #fff;
      }
    </style>
  </defs>
  <path id="icons8_Instagram_4" class="cls-1" d="M9.53,3A6.537,6.537,0,0,0,3,9.53V19.978a6.537,6.537,0,0,0,6.53,6.53H19.978a6.537,6.537,0,0,0,6.53-6.53V9.53A6.537,6.537,0,0,0,19.978,3Zm0,2.612H19.978A3.923,3.923,0,0,1,23.9,9.53V19.978A3.923,3.923,0,0,1,19.978,23.9H9.53a3.923,3.923,0,0,1-3.918-3.918V9.53A3.923,3.923,0,0,1,9.53,5.612ZM21.283,6.918a1.306,1.306,0,1,0,1.306,1.306A1.306,1.306,0,0,0,21.283,6.918Zm-6.53,1.306a6.53,6.53,0,1,0,6.53,6.53A6.537,6.537,0,0,0,14.754,8.224Zm0,2.612a3.918,3.918,0,1,1-3.918,3.918A3.923,3.923,0,0,1,14.754,10.836Z" transform="translate(-3 -3)"/>
</svg>
