<svg xmlns="http://www.w3.org/2000/svg" xmlns:xlink="http://www.w3.org/1999/xlink" width="36" height="36" viewBox="0 0 36 36">
  <defs>
    <style>
      .cls-1 {
        fill: url(#radial-gradient);
      }

      .cls-2 {
        fill: #fff;
      }
    </style>
    <radialGradient id="radial-gradient" cx="0.207" cy="1.202" r="1.514" gradientTransform="matrix(0.644, -0.765, 0.506, 0.425, -0.534, 0.849)" gradientUnits="objectBoundingBox">
      <stop offset="0.073" stop-color="#eacc7b"/>
      <stop offset="0.184" stop-color="#ecaa59"/>
      <stop offset="0.307" stop-color="#ef802e"/>
      <stop offset="0.358" stop-color="#ef6d3a"/>
      <stop offset="0.46" stop-color="#f04b50"/>
      <stop offset="0.516" stop-color="#f03e58"/>
      <stop offset="0.689" stop-color="#db359e"/>
      <stop offset="0.724" stop-color="#ce37a4"/>
      <stop offset="0.789" stop-color="#ac3cb4"/>
      <stop offset="0.877" stop-color="#7544cf"/>
      <stop offset="0.98" stop-color="#2b4ff2"/>
    </radialGradient>
  </defs>
  <g id="icons8_Instagram_7" transform="translate(-9 -11)">
    <path id="Path_54" data-name="Path 54" class="cls-1" d="M37.174,47H16.826A7.849,7.849,0,0,1,9,39.174V18.826A7.849,7.849,0,0,1,16.826,11H37.174A7.849,7.849,0,0,1,45,18.826V39.174A7.849,7.849,0,0,1,37.174,47Z"/>
    <path id="Path_55" data-name="Path 55" class="cls-2" d="M28.3,19.348c3.6,0,3.991,0,5.4.078a8.686,8.686,0,0,1,2.5.47,4.5,4.5,0,0,1,2.583,2.583,8.686,8.686,0,0,1,.47,2.5V30.3c0,3.6,0,3.991-.078,5.4a8.686,8.686,0,0,1-.47,2.5,4.5,4.5,0,0,1-2.583,2.583,8.686,8.686,0,0,1-2.5.47H28.3c-3.6,0-3.991,0-5.4-.078a8.686,8.686,0,0,1-2.5-.47,4.5,4.5,0,0,1-2.583-2.583,8.686,8.686,0,0,1-.47-2.5V30.3c0-3.6,0-3.991.078-5.4a8.686,8.686,0,0,1,.47-2.5,4.5,4.5,0,0,1,2.583-2.583,8.686,8.686,0,0,1,2.5-.47H28.3M28.3,17c-3.6,0-4.07,0-5.478.078a10.552,10.552,0,0,0-3.209.626A5.641,5.641,0,0,0,17.27,19.27,8.784,8.784,0,0,0,15.7,21.617a10.552,10.552,0,0,0-.626,3.209C15,26.235,15,26.7,15,30.3s0,4.07.078,5.478a10.552,10.552,0,0,0,.626,3.209,5.641,5.641,0,0,0,1.565,2.348A7.706,7.706,0,0,0,19.617,42.9a10.552,10.552,0,0,0,3.209.626c1.409.078,1.878.078,5.478.078s4.07,0,5.478-.078a10.552,10.552,0,0,0,3.209-.626,5.641,5.641,0,0,0,2.348-1.565A7.706,7.706,0,0,0,40.9,38.991a10.552,10.552,0,0,0,.626-3.209c.078-1.409.078-1.878.078-5.478s0-4.07-.078-5.478a10.552,10.552,0,0,0-.626-3.209,5.641,5.641,0,0,0-1.565-2.348A8.784,8.784,0,0,0,36.991,17.7a10.552,10.552,0,0,0-3.209-.626C32.374,17,31.9,17,28.3,17Z" transform="translate(-1.304 -1.304)"/>
    <path id="Path_56" data-name="Path 56" class="cls-2" d="M30.043,25a7.043,7.043,0,1,0,7.043,7.043A7.014,7.014,0,0,0,30.043,25Zm0,11.739a4.7,4.7,0,1,1,4.7-4.7A4.709,4.709,0,0,1,30.043,36.739Z" transform="translate(-3.043 -3.043)"/>
    <circle id="Ellipse_25" data-name="Ellipse 25" class="cls-2" cx="1.565" cy="1.565" r="1.565" transform="translate(32.478 20.391)"/>
  </g>
</svg>
