<svg xmlns="http://www.w3.org/2000/svg" width="23.507" height="23.507" viewBox="0 0 23.507 23.507">
  <defs>
    <style>
      .cls-1 {
        fill: #fff;
      }
    </style>
  </defs>
  <path id="icons8_linkedin_4" class="cls-1" d="M23.9,3H5.612A2.611,2.611,0,0,0,3,5.612V23.9a2.611,2.611,0,0,0,2.612,2.612H23.9A2.611,2.611,0,0,0,26.507,23.9V5.612A2.611,2.611,0,0,0,23.9,3ZM10.836,21.283H7.541V12.142h3.295ZM9.13,10.466A1.561,1.561,0,0,1,7.451,8.9a1.6,1.6,0,0,1,1.79-1.567A1.561,1.561,0,0,1,10.921,8.9,1.6,1.6,0,0,1,9.13,10.466ZM22.589,21.283H19.4v-5c0-1.382-.85-1.7-1.169-1.7s-1.382.213-1.382,1.7v5H13.555V12.142H16.85v1.276c.424-.744,1.275-1.276,2.869-1.276s2.871,1.276,2.871,4.145Z" transform="translate(-3 -3)"/>
</svg>
