<svg xmlns="http://www.w3.org/2000/svg" width="23" height="23" viewBox="0 0 23 23">
  <defs>
    <style>
      .cls-1 {
        fill: #6ad285;
      }

      .cls-2 {
        fill: #fff;
      }
    </style>
  </defs>
  <g id="icons8_cheap_2" transform="translate(-4 -4)">
    <circle id="Ellipse_34" data-name="Ellipse 34" class="cls-1" cx="11.5" cy="11.5" r="11.5" transform="translate(4 4)"/>
    <path id="Path_76" data-name="Path 76" class="cls-2" d="M16.46,16.826c0-3.723-4.11-3.214-4.11-5.155a1.149,1.149,0,0,1,1.209-1.264,1.96,1.96,0,0,1,.808.177,1.263,1.263,0,0,0,1.524-.467,1.212,1.212,0,0,0-.482-1.805,4.5,4.5,0,0,0-1.429-.364V7.407a.9.9,0,1,0-1.8,0v.73a3.687,3.687,0,0,0-2.488,3.65c0,3.907,4.059,3.2,4.059,5.232a1.157,1.157,0,0,1-1.192,1.243,2.474,2.474,0,0,1-1.149-.29,1.209,1.209,0,0,0-1.537.424l-.036.053a1.2,1.2,0,0,0,.371,1.724,4.789,4.789,0,0,0,1.883.592V21.4a.9.9,0,1,0,1.8,0V20.6A3.74,3.74,0,0,0,16.46,16.826Z" transform="translate(2.459 1.096)"/>
  </g>
</svg>
