<svg xmlns="http://www.w3.org/2000/svg" xmlns:xlink="http://www.w3.org/1999/xlink" width="65.425" height="61.924" viewBox="0 0 65.425 61.924">
  <defs>
    <style>
      .cls-1 {
        fill: url(#linear-gradient);
      }

      .cls-2 {
        fill: #fff;
      }
    </style>
    <linearGradient id="linear-gradient" x1="0.5" x2="0.5" y2="1" gradientUnits="objectBoundingBox">
      <stop offset="0" stop-color="#979797"/>
      <stop offset="1" stop-color="#292929"/>
    </linearGradient>
  </defs>
  <g id="icons8_monster_face" transform="matrix(0.966, -0.259, 0.259, 0.966, -1.484, 12.424)">
    <path id="Path_20" data-name="Path 20" class="cls-1" d="M52.99,4.476a2.477,2.477,0,0,0-2.476,2.476A4.95,4.95,0,0,1,45.563,11.9h-.2a19.775,19.775,0,0,0-34.269,0h-.2A4.95,4.95,0,0,1,5.951,6.951,2.476,2.476,0,0,0,1,6.951V9.427a9.887,9.887,0,0,0,7.643,9.618,19.928,19.928,0,0,0-.215,2.76V34.184a17.33,17.33,0,0,0,17.33,17.33h4.951a17.33,17.33,0,0,0,17.33-17.33V21.806a19.928,19.928,0,0,0-.215-2.76,9.887,9.887,0,0,0,7.643-9.618V6.951A2.477,2.477,0,0,0,52.99,4.476Z" transform="translate(0 0)"/>
    <path id="Path_21" data-name="Path 21" class="cls-2" d="M20.7,9.385l-6.2,1.24a1.7,1.7,0,0,0-1.235,2.34,4.953,4.953,0,0,0,9.361-.914,5.247,5.247,0,0,0,.116-1.04A1.688,1.688,0,0,0,20.7,9.385Z" transform="translate(17.878 10.849)"/>
    <path id="Path_22" data-name="Path 22" class="cls-2" d="M8.824,10a1.657,1.657,0,0,0-1.406,2.515,4.955,4.955,0,0,0,8.534,0A1.656,1.656,0,0,0,14.547,10Z" transform="translate(9.12 11.806)"/>
    <path id="Path_23" data-name="Path 23" class="cls-2" d="M20.119,24.5c-7.031,0-12.5-3.748-13.584-8.68A1.51,1.51,0,0,1,8.01,14h3.2a1.394,1.394,0,0,1,1.329.963c.5,1.515,1.518,4.285,2.325,4.285.767,0,1.731-2.515,2.25-4.063A1.746,1.746,0,0,1,18.78,14h2.686a1.744,1.744,0,0,1,1.659,1.178c.527,1.547,1.5,4.07,2.245,4.07.78,0,1.815-2.78,2.32-4.293A1.392,1.392,0,0,1,29.017,14h3.206A1.508,1.508,0,0,1,33.7,15.817C32.612,20.749,27.153,24.5,20.119,24.5Z" transform="translate(8.116 17.709)"/>
  </g>
</svg>
