<svg xmlns="http://www.w3.org/2000/svg" xmlns:xlink="http://www.w3.org/1999/xlink" width="109.953" height="54.882" viewBox="0 0 109.953 54.882">
  <defs>
    <style>
      .cls-1 {
        fill: url(#linear-gradient);
      }

      .cls-2 {
        fill: #fff;
      }
    </style>
    <linearGradient id="linear-gradient" x1="0.5" x2="0.5" y2="1" gradientUnits="objectBoundingBox">
      <stop offset="0" stop-color="#979797"/>
      <stop offset="1" stop-color="#292929"/>
    </linearGradient>
  </defs>
  <g id="Group_247" data-name="Group 247" transform="translate(-408.595 -169.881)">
    <g id="icons8_facebook_circled_1" transform="translate(405.224 187.284) rotate(-25)">
      <circle id="Ellipse_26" data-name="Ellipse 26" class="cls-1" cx="20" cy="20" r="20" transform="translate(2.537 2.537)"/>
      <path id="Path_57" data-name="Path 57" class="cls-2" d="M18.668,23.543h4.784l.71-5.513H18.7v-3.51c0-1.594.445-2.674,2.731-2.674H24.32V6.93a40.5,40.5,0,0,0-4.232-.212c-4.2,0-7.07,2.563-7.07,7.264v4.056H8.278v5.513h4.74V37.419a20.459,20.459,0,0,0,2.79.214,20.513,20.513,0,0,0,2.86-.225Z" transform="translate(6.228 4.632)"/>
    </g>
    <g id="icons8_linkedin_circled" transform="translate(478.897 170.667) rotate(17)">
      <path id="Path_63" data-name="Path 63" class="cls-1" d="M22.037,2A20.037,20.037,0,1,0,42.075,22.037,20.037,20.037,0,0,0,22.037,2ZM15.962,30.058a.912.912,0,0,1-.912.912H12.013a.912.912,0,0,1-.912-.912V17.3a.912.912,0,0,1,.912-.912H15.05a.912.912,0,0,1,.912.912Zm-2.431-16.1a2.431,2.431,0,1,1,2.431-2.431A2.435,2.435,0,0,1,13.531,13.958Zm19.44,16.1a.912.912,0,0,1-.912.912H29.022a.912.912,0,0,1-.912-.912V24.59c0-2.733-.607-3.967-2.24-3.967-2.012,0-2.621,1.234-2.621,3.835v5.6a.912.912,0,0,1-.912.912H19.3a.912.912,0,0,1-.912-.912V17.3a.912.912,0,0,1,.912-.912h3.038a.912.912,0,0,1,.912.912v1.214h.056c.627-1.214,1.775-2.126,4.054-2.126,4.737,0,5.61,3.208,5.61,7.386v6.284Z" transform="translate(0 0)"/>
      <g id="Group_237" data-name="Group 237" transform="translate(11.101 9.099)">
        <path id="Path_60" data-name="Path 60" class="cls-2" d="M10.491,9.181H7.454a.912.912,0,0,0-.912.912V22.85a.912.912,0,0,0,.912.912h3.038a.912.912,0,0,0,.912-.912V10.093A.911.911,0,0,0,10.491,9.181Z" transform="translate(-6.542 -1.891)"/>
        <path id="Path_61" data-name="Path 61" class="cls-2" d="M8.973,5.543A2.431,2.431,0,1,0,11.4,7.974,2.435,2.435,0,0,0,8.973,5.543Z" transform="translate(-6.542 -5.543)"/>
        <path id="Path_62" data-name="Path 62" class="cls-2" d="M19.152,9.181c-2.278,0-3.426.912-4.054,2.126h-.056V10.093a.912.912,0,0,0-.912-.912H11.093a.912.912,0,0,0-.912.912V22.85a.912.912,0,0,0,.912.912H14.13a.912.912,0,0,0,.912-.912v-5.6c0-2.6.607-3.835,2.621-3.835,1.633,0,2.24,1.234,2.24,3.967V22.85a.912.912,0,0,0,.912.912h3.038a.912.912,0,0,0,.912-.912V16.567C24.76,12.389,23.889,9.181,19.152,9.181Z" transform="translate(-2.889 -1.891)"/>
      </g>
    </g>
    <g id="icons8_whatsapp_1" transform="translate(442.192 167.881)">
      <path id="Path_58" data-name="Path 58" class="cls-1" d="M22.037,2A20.005,20.005,0,0,0,4.09,30.907L2.077,38.96A2.5,2.5,0,0,0,5.114,42l8.053-2.014A20.029,20.029,0,1,0,22.037,2Z" transform="translate(0)"/>
      <path id="Path_59" data-name="Path 59" class="cls-2" d="M25.821,19.958a4.152,4.152,0,0,0-5.871,0l-1.034,1.034-5.871-5.871,1.034-1.034a4.151,4.151,0,1,0-6.985-2.056,17.474,17.474,0,0,0,5.027,9.882A17.474,17.474,0,0,0,22,26.94a4.146,4.146,0,0,0,3.817-6.983Z" transform="translate(5.018 5.019)"/>
    </g>
  </g>
</svg>
