<svg id="icons8_sand_timer_3" xmlns="http://www.w3.org/2000/svg" width="20.8" height="26" viewBox="0 0 20.8 26">
  <defs>
    <style>
      .cls-1 {
        fill: #84c2f9;
      }

      .cls-2 {
        fill: #fff;
      }
    </style>
  </defs>
  <path id="Path_88" data-name="Path 88" class="cls-1" d="M23.2,7.514V6.6A2.6,2.6,0,0,0,20.6,4H7.6A2.6,2.6,0,0,0,5,6.6v.914a6.5,6.5,0,0,0,3.94,5.975l2.127.911-2.128.911A6.5,6.5,0,0,0,5,21.286V22.2a2.6,2.6,0,0,0,2.6,2.6h13a2.6,2.6,0,0,0,2.6-2.6v-.914a6.5,6.5,0,0,0-3.94-5.975L17.133,14.4l2.128-.913A6.5,6.5,0,0,0,23.2,7.514Z" transform="translate(-3.7 -1.4)"/>
  <path id="Path_89" data-name="Path 89" class="cls-2" d="M22.85,5.9H5.95a1.95,1.95,0,0,1,0-3.9h16.9a1.95,1.95,0,1,1,0,3.9Z" transform="translate(-4 -2)"/>
  <path id="Path_90" data-name="Path 90" class="cls-2" d="M22.85,22.9H5.95a1.95,1.95,0,1,1,0-3.9h16.9a1.95,1.95,0,1,1,0,3.9Z" transform="translate(-4 3.1)"/>
  <path id="Path_91" data-name="Path 91" class="cls-2" d="M8,20.314H18.4v-.707a3.713,3.713,0,0,0-2.252-3.414L13.2,14.929,10.25,16.193A3.714,3.714,0,0,0,8,19.606Z" transform="translate(-2.8 1.879)"/>
</svg>
