<svg xmlns="http://www.w3.org/2000/svg" width="36" height="36" viewBox="0 0 36 36">
  <defs>
    <style>
      .cls-1 {
        fill: #03a9f4;
      }

      .cls-2 {
        fill: #fff;
      }
    </style>
  </defs>
  <g id="icons8_twitter_squared_2" transform="translate(-6 -6)">
    <path id="Path_34" data-name="Path 34" class="cls-1" d="M42,37a5,5,0,0,1-5,5H11a5,5,0,0,1-5-5V11a5,5,0,0,1,5-5H37a5,5,0,0,1,5,5Z"/>
    <path id="Path_35" data-name="Path 35" class="cls-2" d="M36,17.12A11.226,11.226,0,0,1,33,18c1.018-.6,2.633-1.862,3-3a14.315,14.315,0,0,1-3.793,1.372A4.832,4.832,0,0,0,24,20v2c-4,0-7.9-3.047-10.327-6a4.813,4.813,0,0,0-.667,2.457c0,1.819,1.671,3.665,2.994,4.543a9.282,9.282,0,0,1-3-1v.057a4.483,4.483,0,0,0,3.912,4.422,6.262,6.262,0,0,1-2.84.521c.626,1.935,3.773,2.958,5.928,3a12.636,12.636,0,0,1-7,2,7.368,7.368,0,0,1-1-.023A15.551,15.551,0,0,0,20,34c9.057,0,14-6.918,14-13.37,0-.212-.007-.922-.018-1.13A7.6,7.6,0,0,0,36,17.12"/>
  </g>
</svg>
