<svg xmlns="http://www.w3.org/2000/svg" width="29.382" height="23.507" viewBox="0 0 29.382 23.507">
  <defs>
    <style>
      .cls-1 {
        fill: #fff;
      }
    </style>
  </defs>
  <path id="icons8_twitter_squared_4" class="cls-1" d="M31.382,4a19.331,19.331,0,0,1-4.8,1.875c-.04.01-.072.024-.11.034a6.608,6.608,0,0,0-11.253,4.7c0,.192-.016.547,0,.735-4.926,0-8.675-2.58-11.364-5.876a8.946,8.946,0,0,0-.42,2.985c0,2.058,1.609,4.08,4.114,5.333a6.022,6.022,0,0,1-1.5.2,3.946,3.946,0,0,1-2.584-.906v.075c0,2.877,3.053,4.835,5.768,5.38a5.264,5.264,0,0,1-2.2.357c-.382,0-1.734-.175-2.095-.242.755,2.358,3.479,3.683,6.075,3.73-2.03,1.593-3.439,2.183-7.6,2.183H2a17.808,17.808,0,0,0,9.324,2.94c10.916,0,17.12-8.32,17.12-16.162,0-.126,0-.391-.007-.657,0-.026.007-.051.007-.078s-.012-.078-.012-.118c0-.2-.009-.386-.013-.483a12.072,12.072,0,0,0,2.963-3.072,11.856,11.856,0,0,1-3.408.934A8.9,8.9,0,0,0,31.382,4Z" transform="translate(-2 -3.999)"/>
</svg>
