<svg xmlns="http://www.w3.org/2000/svg" width="24.347" height="29.758" viewBox="0 0 24.347 29.758">
  <defs>
    <style>
      .cls-1 {
        fill: #3e89cc;
      }

      .cls-2 {
        fill: #84c2f9;
      }
    </style>
  </defs>
  <g id="icons8_shopping_mall" transform="translate(-3 -1)">
    <path id="Path_83" data-name="Path 83" class="cls-1" d="M13.763,1A6.766,6.766,0,0,0,7,7.763V9.116h4.058V7.763a2.705,2.705,0,1,1,5.41,0V9.116h4.058V7.763A6.766,6.766,0,0,0,13.763,1Z" transform="translate(1.411 0)"/>
    <path id="Path_84" data-name="Path 84" class="cls-2" d="M23.289,28.642H7.058A4.058,4.058,0,0,1,3,24.584V9.705A2.7,2.7,0,0,1,5.705,7H24.642a2.7,2.7,0,0,1,2.705,2.705V24.584A4.058,4.058,0,0,1,23.289,28.642Z" transform="translate(0 2.116)"/>
  </g>
</svg>
